<svg aria-hidden="true" style="position: absolute; width: 0; height: 0; overflow: hidden;" version="1.1" xmlns="http://www.w3.org/2000/svg" xmlns:xlink="http://www.w3.org/1999/xlink">
<defs>
<symbol id="icon-contact" viewBox="0 0 24 24">
<path d="M20.016 15.375q0.422 0 0.703 0.281t0.281 0.703v3.469q0 1.172-0.984 1.172-6.984 0-12-5.016t-5.016-12q0-0.984 1.172-0.984h3.469q0.422 0 0.703 0.281t0.281 0.703q0 1.828 0.563 3.516 0.188 0.609-0.234 1.031l-1.922 1.688q2.156 4.5 6.891 6.797l1.547-1.969q0.281-0.281 0.703-0.281 0.234 0 0.328 0.047 1.688 0.563 3.516 0.563z"></path>
</symbol>
<symbol id="icon-location" viewBox="0 0 24 24">
<path d="M12 11.484q1.031 0 1.758-0.727t0.727-1.758-0.727-1.758-1.758-0.727-1.758 0.727-0.727 1.758 0.727 1.758 1.758 0.727zM12 2.016q2.906 0 4.945 2.039t2.039 4.945q0 1.453-0.727 3.328t-1.758 3.516-2.039 3.070-1.711 2.273l-0.75 0.797q-0.281-0.328-0.75-0.867t-1.688-2.156-2.133-3.141-1.664-3.445-0.75-3.375q0-2.906 2.039-4.945t4.945-2.039z"></path>
</symbol>
<symbol id="icon-gallery" viewBox="0 0 24 24">
<path d="M12 17.016q2.063 0 3.539-1.477t1.477-3.539-1.477-3.539-3.539-1.477-3.539 1.477-1.477 3.539 1.477 3.539 3.539 1.477zM9 2.016h6l1.828 1.969h3.188q0.797 0 1.383 0.609t0.586 1.406v12q0 0.797-0.586 1.406t-1.383 0.609h-16.031q-0.797 0-1.383-0.609t-0.586-1.406v-12q0-0.797 0.586-1.406t1.383-0.609h3.188zM8.813 12q0-1.313 0.938-2.25t2.25-0.938 2.25 0.938 0.938 2.25-0.938 2.25-2.25 0.938-2.25-0.938-0.938-2.25z"></path>
</symbol>
<symbol id="icon-x" viewBox="0 0 24 24">
<path d="M14.859 11.531l-1.453 1.453 6.891 6.891-1.406 1.406-6.891-6.891-6.891 6.891-1.406-1.406 9.75-9.75q-0.563-1.125-0.164-2.625t1.57-2.672q1.453-1.453 3.234-1.664t2.859 0.867 0.867 2.883-1.664 3.258q-1.172 1.172-2.672 1.547t-2.625-0.188zM8.109 13.359l-4.219-4.219q-1.172-1.172-1.172-2.813t1.172-2.813l7.031 6.984z"></path>
</symbol>
<symbol id="icon-review" viewBox="0 0 24 24">
<path d="M18 14.016v-2.016h-5.484l-2.016 2.016h7.5zM6 14.016h2.484l6.891-6.891q0.375-0.375 0-0.703l-1.781-1.781q-0.375-0.328-0.703 0l-6.891 6.891v2.484zM20.016 2.016q0.797 0 1.383 0.586t0.586 1.383v12q0 0.797-0.586 1.406t-1.383 0.609h-14.016l-3.984 3.984v-18q0-0.797 0.586-1.383t1.383-0.586h16.031z"></path>
</symbol>
<symbol id="icon-menu" viewBox="0 0 24 24">
<path d="M15.984 6q0-1.406 1.523-2.695t3.492-1.289v19.969h-2.484v-7.969h-2.531v-8.016zM11.016 9v-6.984h1.969v6.984q0 1.594-1.078 2.742t-2.672 1.242v9h-2.484v-9q-1.594-0.094-2.672-1.242t-1.078-2.742v-6.984h2.016v6.984h1.969v-6.984h2.016v6.984h2.016z"></path>
</symbol>
<symbol id="icon-home" viewBox="0 0 24 24">
<path d="M9.984 20.016h-4.969v-8.016h-3l9.984-9 9.984 9h-3v8.016h-4.969v-6h-4.031v6z"></path>
</symbol>
<symbol id="icon-burger" viewBox="0 0 24 24">
<path d="M2.016 15.984h19.969v2.016q0 0.797-0.586 1.406t-1.383 0.609h-16.031q-0.797 0-1.383-0.609t-0.586-1.406v-2.016zM5.344 13.5q-0.516 0-1.125 0.375-1.031 0.609-2.203 0.609v-1.969q0.516 0 1.125-0.375 1.078-0.656 2.203-0.656 1.078 0 2.156 0.656 0.609 0.375 1.172 0.375 0.516 0 1.125-0.375 1.078-0.656 2.203-0.656 1.078 0 2.156 0.656 0.609 0.375 1.172 0.375 0.516 0 1.125-0.375 1.078-0.656 2.203-0.656 1.078 0 2.156 0.656l1.172 0.375v1.969q-1.125 0-2.156-0.609-0.609-0.375-1.172-0.375-0.516 0-1.125 0.375-1.031 0.609-2.203 0.609-1.125 0-2.156-0.609-0.609-0.375-1.172-0.375-0.516 0-1.125 0.375-1.031 0.609-2.203 0.609-1.125 0-2.156-0.609-0.609-0.375-1.172-0.375zM21.984 9.984h-19.969q-0.234-2.438 2.719-4.219t7.266-1.781 7.266 1.781 2.719 4.219z"></path>
</symbol>
<symbol id="icon-hot" viewBox="0 0 24 24">
<path d="M14.719 17.625q-0.234 0.234-0.586 0.422t-0.633 0.281q-0.844 0.281-1.664 0.023t-1.383-0.727q-0.094-0.094-0.070-0.188t0.117-0.141q0.891-0.281 1.406-0.891t0.703-1.313q0.141-0.656-0.047-1.266t-0.281-1.266q-0.094-0.516-0.070-1.008t0.211-0.961q0-0.094 0.094-0.094t0.141 0.047q0.281 0.609 0.727 1.078t0.938 0.891 0.891 0.914 0.492 1.148q0.047 0.281 0.047 0.516 0.047 0.703-0.234 1.406t-0.797 1.125zM17.531 9.609q-0.563-0.516-1.172-0.938t-1.172-0.984q-1.125-1.125-1.477-2.625t0.117-3.047q0.094-0.234-0.070-0.398t-0.398-0.070q-0.563 0.234-1.055 0.563t-0.961 0.656q-1.453 1.219-2.297 2.883t-0.961 3.563 0.586 3.727q0 0.094 0.023 0.188t0.023 0.188q0 0.422-0.375 0.609t-0.75-0.141q-0.094-0.141-0.141-0.234-0.75-0.938-1.008-2.133t-0.070-2.367q0.047-0.281-0.211-0.422t-0.445 0.094q-0.938 1.219-1.359 2.695t-0.328 2.977q0 0.422 0.070 0.867t0.211 0.867q0.328 1.125 0.891 2.063 0.891 1.5 2.391 2.508t3.234 1.242q1.828 0.234 3.68-0.188t3.258-1.688q1.031-0.984 1.617-2.273t0.633-2.695-0.516-2.719q-0.047-0.094-0.070-0.164t-0.070-0.164q-0.422-0.797-0.938-1.453-0.188-0.281-0.398-0.516t-0.492-0.469z"></path>
</symbol>
<symbol id="icon-vegetarian" viewBox="0 0 32 32">
<path d="M31.604 4.203c-3.461-2.623-8.787-4.189-14.247-4.189-6.754 0-12.257 2.358-15.099 6.469-1.335 1.931-2.073 4.217-2.194 6.796-0.108 2.296 0.278 4.835 1.146 7.567 2.965-8.887 11.244-15.847 20.79-15.847 0 0-8.932 2.351-14.548 9.631-0.003 0.004-0.078 0.097-0.207 0.272-1.128 1.509-2.111 3.224-2.846 5.166-1.246 2.963-2.4 7.030-2.4 11.931h4c0 0-0.607-3.819 0.449-8.212 1.747 0.236 3.308 0.353 4.714 0.353 3.677 0 6.293-0.796 8.231-2.504 1.736-1.531 2.694-3.587 3.707-5.764 1.548-3.325 3.302-7.094 8.395-10.005 0.292-0.167 0.48-0.468 0.502-0.804s-0.126-0.659-0.394-0.862z"></path>
</symbol>
</defs>
</svg>
